# xmcd CD database file
#
# Track frame offsets:
#	183
#	18758
#	34355
#	49053
#	63783
#	93333
#	119535
#	136028
#	150933
#	179150
#
# Disc length: 2602 seconds
#
# Revision: 0
# Processed by: cddbd v1.4PL0 Copyright (c) Steve Scherf et al.
# Submitted via: Feurio! 1.65 - http://www.feurio.com
#
DISCID=7a0a280a
DTITLE=Freddie and The Screamers - Death Letter Blues
DYEAR=1992
DGENRE=Blues
TTITLE0=Tough As Nails
TTITLE1=The Eyes Don't Lie
TTITLE2=I Got Wise
TTITLE3=Check Out Her Mama
TTITLE4=Love And Tenderness
TTITLE5=Death Letter Blues
TTITLE6=I Can't Get Enough
TTITLE7=I Get My Fun Where I Find It
TTITLE8=Life Is Hard
TTITLE9=I Like Women
EXTD=ARD Appaloosa 1992
EXTT0=
EXTT1=
EXTT2=
EXTT3=
EXTT4=
EXTT5=
EXTT6=
EXTT7=
EXTT8=
EXTT9=
PLAYORDER=
